<svg id="Group_1" data-name="Group 1" xmlns="http://www.w3.org/2000/svg" width="103.452" height="109.147" viewBox="0 0 103.452 109.147">
  <path id="Path_17" data-name="Path 17" d="M1011.983,695.289a2.878,2.878,0,1,1,0-5.755h23.66a6.434,6.434,0,0,0,2.877,8.633,2.878,2.878,0,0,1-2.877,2.878h-23.66a2.878,2.878,0,1,1,0-5.755Z" transform="translate(-1006.439 -592.353)" fill="#3f3d56" opacity="0.999"/>
  <path id="Path_18" data-name="Path 18" d="M937.748,689.351c-.4,15.693,9.088,11.693,20.6,11.693s21,2,21.078-11.693c.038-6.743-9.4-8.209-20.905-8.209S937.921,682.611,937.748,689.351Z" transform="translate(-875.969 -592.353)" fill="#3f3d56"/>
  <path id="Path_19" data-name="Path 19" d="M955.978,695.553a1.761,1.761,0,0,1,.6-.192,29.808,29.808,0,0,0,3.1-.663,6.529,6.529,0,0,0,2.743-1.526,6.606,6.606,0,0,1,.966-.925,1.162,1.162,0,0,1,1.26-.091.834.834,0,0,1,.112.106l.429-.283q1.142-.752,2.3-1.487l.031-.02a1.056,1.056,0,0,1,0-.366,1.767,1.767,0,0,1,.766-.95c-.992-.01-1.99-.1-2.976-.2a3.569,3.569,0,0,1-2.526-.987.686.686,0,0,1-.176-.408c0-.311.319-.514.607-.632a6.1,6.1,0,0,1,1.187-.35,6.51,6.51,0,0,0,.842-.176,4.244,4.244,0,0,0,.708-.335l1.466-.807a2.241,2.241,0,0,0,.567-.394c.249-.263.359-.636.613-.895.234-.239,1.179-.553,1.314-.064.053.193-.151.407-.175.623a9.918,9.918,0,0,1,1.015-.558c-.019-.043-.044-.082-.06-.127a13.073,13.073,0,0,0,3.76-4.867c-.145,0-.291.013-.436.011a1.114,1.114,0,0,1-.7-.172.77.77,0,0,1-.25-.625,2.115,2.115,0,0,1,.169-.673,5.152,5.152,0,0,1,.973-1.746,5.842,5.842,0,0,1,1.426-1.013l.084-.047c.036-.108.068-.217.111-.323a17.186,17.186,0,0,1,1.07-1.9,12.456,12.456,0,0,0,1.223-3.257,4.2,4.2,0,0,1,.772-1.916c.763-.841,2.072-.82,3.2-.693.644.073,1.285.17,1.925.269.006-.016.006-.034.013-.05a1.311,1.311,0,0,0,.147-.485,2.007,2.007,0,0,0-.091-.408,1,1,0,0,1,.28-.921c.027-.026.053-.054.079-.082q-.106-.249-.194-.5a.6.6,0,0,1-.141-.456,4.823,4.823,0,0,1-.183-1.259,13.782,13.782,0,0,0,.1-2.841,1.59,1.59,0,0,1,.25-.657c.023-.032.063-.046.089-.074a4.023,4.023,0,0,0-.671-.7,10.084,10.084,0,0,0-1.574-1c-.133-.073-.318-.125-.445-.209a4.472,4.472,0,0,1-4.8-6.064,1.574,1.574,0,0,1-.98-.723,2.946,2.946,0,0,1-.385-1.246,1.3,1.3,0,0,1,.188-.985,2.2,2.2,0,0,1,.573-.4,2.2,2.2,0,0,0,.713-.722c.127-.209.217-.437.331-.653a2.42,2.42,0,0,1,2.091-1.386,9.036,9.036,0,0,1,1.244.248c1.4.246,2.922-.5,4.22.083a3.928,3.928,0,0,1,.883.589q.549.452,1.054.953a2.182,2.182,0,0,1,.643.935c.176.663-.243,1.4.024,2.034a3.071,3.071,0,0,0,.326.511c.295.432-.025,2.119.007,2.641a.979.979,0,0,1-.181.724.609.609,0,0,1-.131.1,58.575,58.575,0,0,1,6.379,2.711,13.671,13.671,0,0,1,5.92,5.529c.352.686.619,1.411.937,2.112.424.936.937,1.828,1.449,2.719.625,1.086,1.251,2.175,1.974,3.2a18.326,18.326,0,0,1,1.143,1.694,1.636,1.636,0,0,1,.007.257.458.458,0,0,0,.023.241.372.372,0,0,0,.273.156l.017.044a15.627,15.627,0,0,1,.406,1.6c.213.859.553,1.688.684,2.564a.682.682,0,0,1-.665,1.062c-.749.333-1.471.723-2.19,1.117.011.053.027.1.034.158a2.952,2.952,0,0,1-1.564,2.734,8.05,8.05,0,0,1-3.193.868c-.431.052-.866.076-1.3.12a8.816,8.816,0,0,1-2,.81,1.854,1.854,0,0,1-.468.073,1.422,1.422,0,0,1-1.069-.6,73.856,73.856,0,0,1-11.154-.228,4.081,4.081,0,0,0-3.01.467c-.8.653-.966,1.812-1.563,2.658a9.8,9.8,0,0,1-1.454,1.419,21.662,21.662,0,0,0-2.793,3.671,8.241,8.241,0,0,1-3.365,3.106,2.381,2.381,0,0,0-1.044-.908c-.111-.066-.218-.144-.327-.215a4.107,4.107,0,0,1-.511.666c-.143.155-.286.318-.42.487,0,0,.008,0,.012,0,.195.031.26.274.282.47l.257,2.249a.838.838,0,0,1-.03.445.786.786,0,0,1-.4.336,6.091,6.091,0,0,1-2.219.585c-.387.026-.777.016-1.164.05a14.048,14.048,0,0,0-1.88.375,17.675,17.675,0,0,1-5.127.4,3.26,3.26,0,0,1-1.04-.2,3.093,3.093,0,0,1-1.026-.795,2.907,2.907,0,0,1-.772-1.237A1.2,1.2,0,0,1,955.978,695.553Z" transform="translate(-921.121 -592.353)" fill="#3f3d56"/>
  <path id="Path_20" data-name="Path 20" d="M978.088,645.319c-.166-.029-.33-.074-.493-.116a3.6,3.6,0,0,1,1.565.151A4.366,4.366,0,0,1,978.088,645.319Z" transform="translate(-915.567 -592.353)" fill="#ff6584"/>
  <path id="Path_21" data-name="Path 21" d="M979.71,646.457c-.114.216-.2.444-.331.653a2.2,2.2,0,0,1-.713.722,2.2,2.2,0,0,0-.573.4,1.3,1.3,0,0,0-.188.985,2.945,2.945,0,0,0,.385,1.246,1.574,1.574,0,0,0,.98.723,4.409,4.409,0,0,0,4.8,6.064c.127.084.312.136.445.209a10.087,10.087,0,0,1,1.574,1,4.027,4.027,0,0,1,.671.7c-.027.028-.066.043-.089.074a1.59,1.59,0,0,0-.25.657,13.786,13.786,0,0,1-.1,2.841,4.825,4.825,0,0,0,.183,1.259.6.6,0,0,0,.141.456q.089.254.194.5c-.026.028-.053.057-.079.082a1,1,0,0,0-.28.921,2.016,2.016,0,0,1,.091.408,1.311,1.311,0,0,1-.147.486c-.006.016-.007.034-.013.05-.64-.1-1.281-.2-1.925-.269a9.467,9.467,0,0,0-.955-.063.659.659,0,0,0,.041-.2,2.008,2.008,0,0,0-.091-.409,1,1,0,0,1,.28-.921c.027-.026.053-.054.079-.082q-.106-.249-.194-.5a.6.6,0,0,1-.141-.456,4.823,4.823,0,0,1-.183-1.259,13.783,13.783,0,0,0,.1-2.841,1.59,1.59,0,0,1,.25-.657c.023-.032.063-.046.089-.074a4.023,4.023,0,0,0-.671-.7,10.1,10.1,0,0,0-1.574-1c-.133-.073-.318-.125-.445-.209a4.472,4.472,0,0,1-4.8-6.064,1.574,1.574,0,0,1-.98-.723,2.946,2.946,0,0,1-.385-1.246,1.3,1.3,0,0,1,.188-.985,2.2,2.2,0,0,1,.573-.4,2.194,2.194,0,0,0,.713-.722c.126-.209.217-.437.331-.653a2.42,2.42,0,0,1,2.091-1.386,9.042,9.042,0,0,1,1.244.248,3.779,3.779,0,0,0,.693.046A2.793,2.793,0,0,0,979.71,646.457Z" transform="translate(-920.524 -592.353)" fill="#ff6584"/>
  <path id="Path_22" data-name="Path 22" d="M979.968,695.553a1.761,1.761,0,0,1,.6-.192,29.808,29.808,0,0,0,3.1-.663,6.529,6.529,0,0,0,2.743-1.526,6.606,6.606,0,0,1,.966-.925,1.162,1.162,0,0,1,1.26-.091.834.834,0,0,1,.112.106l.429-.283q1.142-.752,2.3-1.487l.031-.02a1.056,1.056,0,0,1,0-.366,1.767,1.767,0,0,1,.766-.95c-.992-.01-1.99-.1-2.976-.2a3.569,3.569,0,0,1-2.526-.987.686.686,0,0,1-.176-.408c0-.311.319-.514.607-.632a6.1,6.1,0,0,1,1.187-.35,6.51,6.51,0,0,0,.842-.176,4.244,4.244,0,0,0,.708-.335l1.466-.807a2.241,2.241,0,0,0,.567-.394c.249-.263.359-.636.613-.895.234-.239,1.179-.553,1.314-.064.053.193-.151.407-.175.623a9.918,9.918,0,0,1,1.015-.558c-.019-.043-.044-.082-.06-.127a13.073,13.073,0,0,0,3.76-4.867c-.145,0-.291.013-.436.011a1.114,1.114,0,0,1-.7-.172.77.77,0,0,1-.25-.625,2.115,2.115,0,0,1,.169-.673,5.152,5.152,0,0,1,.973-1.746,5.842,5.842,0,0,1,1.426-1.013l.084-.047c.036-.108.068-.217.111-.323a17.186,17.186,0,0,1,1.07-1.9,12.456,12.456,0,0,0,1.223-3.257,4.2,4.2,0,0,1,.772-1.916c.763-.841,2.072-.82,3.2-.693.252.028.5.071.754.105a2.132,2.132,0,0,0-.954.587,4.2,4.2,0,0,0-.772,1.916,12.456,12.456,0,0,1-1.223,3.257,17.175,17.175,0,0,0-1.069,1.9c-.043.106-.076.215-.111.323l-.084.047a5.84,5.84,0,0,0-1.426,1.013,5.152,5.152,0,0,0-.973,1.746,2.119,2.119,0,0,0-.169.673.769.769,0,0,0,.25.625,1.114,1.114,0,0,0,.7.172c.145,0,.291-.008.436-.011a13.073,13.073,0,0,1-3.76,4.867c.016.045.042.084.06.127a9.906,9.906,0,0,0-1.015.558c.025-.216.229-.43.175-.623-.135-.489-1.081-.175-1.314.064-.254.259-.364.631-.613.895a2.236,2.236,0,0,1-.567.393l-1.466.807a4.24,4.24,0,0,1-.708.335,6.5,6.5,0,0,1-.842.176,6.1,6.1,0,0,0-1.187.35c-.287.118-.608.321-.607.632a.686.686,0,0,0,.176.408,3.569,3.569,0,0,0,2.526.987c.986.1,1.983.195,2.976.2a1.767,1.767,0,0,0-.766.95,1.059,1.059,0,0,0,0,.365l-.031.02q-1.153.735-2.3,1.487l-.429.283a.834.834,0,0,0-.112-.106,1.162,1.162,0,0,0-1.26.091,6.6,6.6,0,0,0-.966.925,6.529,6.529,0,0,1-2.743,1.526,29.862,29.862,0,0,1-3.1.663,1.764,1.764,0,0,0-.6.192,1.2,1.2,0,0,0-.443,1.305,2.907,2.907,0,0,0,.772,1.237,3.092,3.092,0,0,0,1.026.795,2.675,2.675,0,0,0,.761.167,17.648,17.648,0,0,1-2.721.03,3.263,3.263,0,0,1-1.04-.2,3.1,3.1,0,0,1-1.026-.795,2.908,2.908,0,0,1-.772-1.237A1.2,1.2,0,0,1,979.968,695.553Z" transform="translate(-945.112 -592.353)" fill="#ff6584"/>
  <path id="Path_23" data-name="Path 23" d="M989.843,693.049c-.05.045-.1.092-.149.136.037-.054.078-.106.111-.161Z" transform="translate(-938.35 -592.353)" fill="#ff6584"/>
  <path id="Path_24" data-name="Path 24" d="M1013.262,684.738c0,10.595,4.724,7.673,10.551,7.673s10.551,2.921,10.551-7.673-10.551-30.694-10.551-30.694S1013.262,674.143,1013.262,684.738Z" transform="translate(-1006.439 -592.353)" fill="#ff6584"/>
  <path id="Path_25" data-name="Path 25" d="M1019.017,688.792c0,4.816,2.147,3.488,4.8,3.488s4.8,1.328,4.8-3.488-4.8-13.952-4.8-13.952S1019.017,683.976,1019.017,688.792Z" transform="translate(-1006.439 -592.353)" opacity="0.1"/>
  <path id="Path_26" data-name="Path 26" d="M1039.187,656.428s-2.192-2.279-2.148-4.515" transform="translate(-1035.038 -592.353)" fill="#ff6584"/>
  <path id="Path_27" data-name="Path 27" d="M1011.688,637.436s.915-3.027,2.886-4.083" transform="translate(-985.076 -592.353)" fill="#ff6584"/>
  <path id="Path_28" data-name="Path 28" d="M989.688,596.436s.915-3.027,2.886-4.083" transform="translate(-941.076 -592.353)" fill="#ff6584"/>
  <path id="Path_29" data-name="Path 29" d="M1015.688,651.436s.915-3.027,2.886-4.083" transform="translate(-993.076 -592.353)" fill="#ff6584"/>
  <path id="Path_30" data-name="Path 30" d="M1012.688,602.436s.915-3.027,2.886-4.083" transform="translate(-987.076 -592.353)" fill="#ff6584"/>
  <path id="Path_31" data-name="Path 31" d="M1006.688,620.436s.915-3.027,2.886-4.083" transform="translate(-975.076 -592.353)" fill="#ff6584"/>
  <path id="Path_32" data-name="Path 32" d="M1037.187,687.428s-2.192-2.279-2.148-4.515" transform="translate(-1031.038 -592.353)" fill="#ff6584"/>
  <path id="Path_33" data-name="Path 33" d="M1041.187,670.428s-2.192-2.279-2.148-4.515" transform="translate(-1039.038 -592.353)" fill="#ff6584"/>
  <rect id="Rectangle_13" data-name="Rectangle 13" width="25.298" height="1.001" transform="translate(53.218 84.161) rotate(-161.565)" fill="#ff6584"/>
  <path id="Path_34" data-name="Path 34" d="M1004.751,668.523c-.9,3.521.612,2.68,1.991,2.965s1.108,1.555,3-1.931c1.311-2.411-.612-2.68-1.991-2.965S1005.366,666.119,1004.751,668.523Z" transform="translate(-973.476 -592.353)" fill="#ff6584"/>
</svg>
