<svg id="Capa_1" enable-background="new 0 0 512 512" height="512" viewBox="0 0 512 512" width="512" xmlns="http://www.w3.org/2000/svg"><g><g><path d="m0 273.075c0 131.954 106.971 238.925 238.925 238.925l31.398-238.925-31.398-238.926c-131.954 0-238.925 106.971-238.925 238.926z" fill="#fff083"/><path d="m238.925 34.149v477.851c131.955 0 238.925-106.971 238.925-238.925s-106.97-238.926-238.925-238.926z" fill="#ffda2d"/></g><g><g><g><path d="m314.435 298.457c-29.815 0-54.072-24.257-54.072-54.072h30c0 13.273 10.799 24.072 24.072 24.072s24.072-10.799 24.072-24.072h30c-.001 29.815-24.257 54.072-54.072 54.072z" fill="#ffb64c"/></g><g><path d="m163.417 298.457c-29.815 0-54.072-24.257-54.072-54.072h30c0 13.273 10.799 24.072 24.072 24.072s24.072-10.799 24.072-24.072h30c-.001 29.815-24.257 54.072-54.072 54.072z" fill="#ffda2d"/></g></g><g><path d="m369.197 206.86h-74.493v-31.033l33.904-35.326h-32.046v-30h72.635v31.034l-33.903 35.325h33.903zm-59.493-25h.01z" fill="#7270d5"/></g><g><path d="m512 96.359h-74.493v-31.034l33.904-35.325h-32.046v-30h72.635v31.034l-33.904 35.325h33.904zm-59.493-25.001h.01z" fill="#5d519d"/></g></g><g><path d="m238.441 335.664c-22.229 0-40.313 18.084-40.313 40.312v10.452c0 22.228 18.084 40.312 40.313 40.312.162 0 .322-.01.484-.012l17.189-45.526-17.189-45.526c-.162-.002-.321-.012-.484-.012z" fill="#ffda2d"/><path d="m278.754 386.428v-10.452c0-22.066-17.824-40.039-39.829-40.3v91.052c22.006-.261 39.829-18.234 39.829-40.3z" fill="#ffb64c"/></g></g></svg>